# xmcd
#
# Track frame offsets:
#   150
#   19417
#   37943
#   57299
#   78625
#   100524
#   115972
#   128664
#   147268
#   177415
#
# Disc length: 2657 seconds
#
# Revision: 0
# Processed by: cddbd v1.5.1PL2 Copyright (c) Steve Scherf et al.
# Submitted via: uFREEDB 1.6.2
#
DISCID=810a5f0a
DTITLE=Rhytem of Lanna - Rhytem of Lanna
DYEAR=1900
DGENRE=Thai Songs
TTITLE0=01-Songkran Festival
TTITLE1=02-Bucha Drum
TTITLE2=03-Loy-Kra-Thong Festival
TTITLE3=04-Ways of Lanna
TTITLE4=05-Pin Pia Song
TTITLE5=06-Queen of Lanna
TTITLE6=07-Forest Magic
TTITLE7=08-Bucha Drum
TTITLE8=09-Trip to Prathat Lampang Luang
TTITLE9=10-Pin-Pia
EXTD=
EXTT0=
EXTT1=
EXTT2=
EXTT3=
EXTT4=
EXTT5=
EXTT6=
EXTT7=
EXTT8=
EXTT9=
PLAYORDER=
